<svg width="16" height="16" viewBox="0 0 16 16" fill="none" xmlns="http://www.w3.org/2000/svg">
<path d="M9.41385 7.99936L15.7069 1.70636C15.8944 1.51885 15.9997 1.26454 15.9997 0.999361C15.9997 0.734184 15.8944 0.479869 15.7069 0.292361C15.5193 0.104853 15.265 -0.000488281 14.9998 -0.000488281C14.7347 -0.000488281 14.4804 0.104853 14.2928 0.292361L7.99985 6.58536L1.70685 0.292361C1.614 0.199516 1.50378 0.125868 1.38247 0.0756209C1.26117 0.0253738 1.13115 -0.000488281 0.999849 -0.000488281C0.868547 -0.000488281 0.738531 0.0253738 0.617224 0.0756209C0.495916 0.125868 0.385694 0.199516 0.292849 0.292361C0.105341 0.479869 0 0.734184 0 0.999361C0 1.26454 0.105341 1.51885 0.292849 1.70636L6.58585 7.99936L0.292849 14.2924C0.105341 14.4799 0 14.7342 0 14.9994C0 15.2645 0.105341 15.5189 0.292849 15.7064C0.480357 15.8939 0.734673 15.9992 0.999849 15.9992C1.26503 15.9992 1.51934 15.8939 1.70685 15.7064L7.99985 9.41336L14.2928 15.7064C14.3855 15.7995 14.4957 15.8735 14.617 15.924C14.7383 15.9744 14.8684 16.0004 14.9998 16.0004C15.1313 16.0004 15.2614 15.9744 15.3827 15.924C15.504 15.8735 15.6142 15.7995 15.7069 15.7064C15.7998 15.6136 15.8735 15.5034 15.9238 15.3821C15.9742 15.2607 16 15.1307 16 14.9994C16 14.868 15.9742 14.738 15.9238 14.6167C15.8735 14.4954 15.7998 14.3851 15.7069 14.2924L9.41385 7.99936Z" fill="black" fill-opacity="0.6"/>
</svg>
