<svg width="16" height="16" viewBox="0 0 16 16" fill="none" xmlns="http://www.w3.org/2000/svg">
<path d="M9.41382 7.99936L15.7068 1.70636C15.8943 1.51885 15.9997 1.26454 15.9997 0.999361C15.9997 0.734184 15.8943 0.479869 15.7068 0.292361C15.5193 0.104853 15.265 -0.000488281 14.9998 -0.000488281C14.7346 -0.000488281 14.4803 0.104853 14.2928 0.292361L7.99982 6.58536L1.70682 0.292361C1.61397 0.199516 1.50375 0.125868 1.38244 0.0756209C1.26114 0.0253738 1.13112 -0.000488281 0.999819 -0.000488281C0.868517 -0.000488281 0.7385 0.0253738 0.617193 0.0756209C0.495886 0.125868 0.385663 0.199516 0.292819 0.292361C0.10531 0.479869 -3.05176e-05 0.734184 -3.05176e-05 0.999361C-3.05176e-05 1.26454 0.10531 1.51885 0.292819 1.70636L6.58582 7.99936L0.292819 14.2924C0.10531 14.4799 -3.05176e-05 14.7342 -3.05176e-05 14.9994C-3.05176e-05 15.2645 0.10531 15.5189 0.292819 15.7064C0.480327 15.8939 0.734642 15.9992 0.999819 15.9992C1.265 15.9992 1.51931 15.8939 1.70682 15.7064L7.99982 9.41336L14.2928 15.7064C14.3855 15.7995 14.4956 15.8735 14.617 15.924C14.7383 15.9744 14.8684 16.0004 14.9998 16.0004C15.1312 16.0004 15.2613 15.9744 15.3827 15.924C15.504 15.8735 15.6142 15.7995 15.7068 15.7064C15.7998 15.6136 15.8735 15.5034 15.9238 15.3821C15.9741 15.2607 16 15.1307 16 14.9994C16 14.868 15.9741 14.738 15.9238 14.6167C15.8735 14.4954 15.7998 14.3851 15.7068 14.2924L9.41382 7.99936Z" fill="black" fill-opacity="0.6"/>
</svg>
